<svg width="32" height="32" viewBox="0 0 32 32" fill="none" xmlns="http://www.w3.org/2000/svg">
    <path d="M17.5518 3.35694L16.381 0.393001C16.1875 -0.121658 15.5823 -0.14026 15.369 0.393001L14.1982 3.35694L11.6036 3.82199C11.1423 3.9088 10.9438 4.62189 11.2861 5.04974L13.1713 7.344L12.7248 10.5746C12.6554 11.1512 13.1316 11.5977 13.5582 11.3311L15.8849 9.79328L18.1967 11.3063C18.6234 11.5729 19.1046 11.1264 19.0302 10.5498L18.5837 7.3192L20.4688 5.04974C20.8062 4.62809 20.6127 3.915 20.1513 3.82199L17.5568 3.35694H17.5518ZM12.7 15.8762C11.8219 15.8762 11.1125 16.7629 11.1125 17.8604V29.7658C11.1125 30.8633 11.8219 31.75 12.7 31.75H19.05C19.9281 31.75 20.6375 30.8633 20.6375 29.7658V17.8604C20.6375 16.7629 19.9281 15.8762 19.05 15.8762H12.7ZM1.5875 19.8446C0.709414 19.8446 0 20.7313 0 21.8289V29.7658C0 30.8633 0.709414 31.75 1.5875 31.75H7.9375C8.81559 31.75 9.525 30.8633 9.525 29.7658V21.8289C9.525 20.7313 8.81559 19.8446 7.9375 19.8446H1.5875ZM22.225 25.7973V29.7658C22.225 30.8633 22.9344 31.75 23.8125 31.75H30.1625C31.0406 31.75 31.75 30.8633 31.75 29.7658V25.7973C31.75 24.6998 31.0406 23.8131 30.1625 23.8131H23.8125C22.9344 23.8131 22.225 24.6998 22.225 25.7973Z" fill="#B4B4B4"/>
    </svg>
    