<svg width="26" height="32" viewBox="0 0 26 32" fill="none" xmlns="http://www.w3.org/2000/svg">
    <path d="M21.7144 17.0007C21.7591 21.8431 25.9537 23.4548 26 23.4754C25.9645 23.5887 25.3299 25.772 23.7904 28.0265C22.4595 29.9759 21.078 31.918 18.9023 31.9587C16.7643 31.9979 16.0768 30.6878 13.6322 30.6878C11.1885 30.6878 10.4248 31.918 8.40078 31.9979C6.30038 32.0777 4.70091 29.8896 3.35899 27.9477C0.617056 23.9748 -1.47846 16.7212 1.33518 11.8249C2.73288 9.39335 5.23116 7.85381 7.9425 7.81414C10.0049 7.77473 11.9516 9.20455 13.2123 9.20455C14.4722 9.20455 16.8379 7.48496 19.3248 7.73738C20.366 7.78092 23.2884 8.15878 25.1649 10.9118C25.0141 11.0058 21.6781 12.952 21.7144 17.0007ZM17.6963 5.10932C18.8113 3.75677 19.5618 1.87336 19.3572 0C17.7498 0.0646521 15.8062 1.07333 14.6534 2.42535C13.6202 3.62232 12.7154 5.5387 12.9594 7.37497C14.7511 7.51406 16.5811 6.46263 17.6963 5.10932Z" fill="black"/>
    </svg>
    