<svg width="22" height="20" viewBox="0 0 22 20" fill="none" xmlns="http://www.w3.org/2000/svg">
    <path d="M12.8178 0.00300689C14.7621 0.00213343 16.648 0.628673 18.1609 1.77813C19.6738 2.92759 20.7223 4.53048 21.1315 6.31947C21.5407 8.10847 21.2858 9.97541 20.4094 11.6089C19.533 13.2425 18.088 14.5438 16.3155 15.296C15.749 16.4749 14.887 17.5069 13.8036 18.3034C12.7202 19.1 11.4477 19.6373 10.0953 19.8693C8.74278 20.1014 7.35068 20.0212 6.03835 19.6357C4.72602 19.2502 3.53262 18.5708 2.56052 17.6559C1.58841 16.741 0.866594 15.6178 0.456982 14.3826C0.047369 13.1475 -0.0378195 11.8373 0.208723 10.5644C0.455265 9.29145 1.02618 8.0938 1.8725 7.07414C2.71883 6.05449 3.8153 5.24325 5.0679 4.71001C5.74167 3.3069 6.83121 2.11651 8.20583 1.28161C9.58044 0.44672 11.1818 0.00276892 12.8178 0.00300689ZM9.63027 7.00301H7.50527V8.00301C6.81477 8.00143 6.15075 8.25298 5.65395 8.70435C5.15716 9.15572 4.86665 9.77142 4.84399 10.421C4.82133 11.0705 5.06831 11.7028 5.53257 12.1839C5.99684 12.6649 6.64189 12.957 7.33102 12.998L7.50527 13.003H9.63027L9.7259 13.011C9.84838 13.0319 9.9592 13.0926 10.039 13.1825C10.1188 13.2724 10.1625 13.3858 10.1625 13.503C10.1625 13.6202 10.1188 13.7336 10.039 13.8235C9.9592 13.9134 9.84838 13.9741 9.7259 13.995L9.63027 14.003H5.38027V16.003H7.50527V17.003H9.63027V16.003C10.3208 16.0046 10.9848 15.753 11.4816 15.3017C11.9784 14.8503 12.2689 14.2346 12.2916 13.5851C12.3142 12.9355 12.0672 12.3032 11.603 11.8221C11.1387 11.3411 10.4936 11.0491 9.80452 11.008L9.63027 11.003H7.50527L7.40965 10.995C7.28716 10.9741 7.17635 10.9134 7.09655 10.8235C7.01676 10.7336 6.97305 10.6202 6.97305 10.503C6.97305 10.3858 7.01676 10.2724 7.09655 10.1825C7.17635 10.0926 7.28716 10.0319 7.40965 10.011L7.50527 10.003H11.7553V8.00301H9.63027V7.00301ZM12.8178 2.00301C11.9173 2.00187 11.0269 2.18074 10.2054 2.52776C9.38388 2.87479 8.65005 3.38206 8.05246 4.01601C9.25336 3.94739 10.4561 4.1195 11.581 4.52095C12.706 4.9224 13.7276 5.54405 14.5783 6.34479C15.429 7.14552 16.0893 8.1071 16.5157 9.16594C16.9422 10.2248 17.1249 11.3568 17.0518 12.487C18.0179 11.6786 18.7 10.613 19.0077 9.43132C19.3154 8.24968 19.2342 7.00792 18.7748 5.87073C18.3154 4.73353 17.4996 3.75465 16.4355 3.06389C15.3714 2.37313 14.1094 2.00315 12.8167 2.00301H12.8178Z" fill="#F7AF02"/>
    </svg>
    