<svg width="13" height="13" viewBox="0 0 13 13" fill="none" xmlns="http://www.w3.org/2000/svg">
<path d="M10.6319 0H2.36811L0 3.94682V4.6927L4.96765 13H8.03235L13 4.6927V3.94682L10.6319 0ZM10.1681 0.962963L11.8854 3.8251H8.9846L8.17397 0.962963H10.1681ZM5.73457 0.962963H7.26543L8.07603 3.8251H4.92397L5.73457 0.962963ZM2.83191 0.962963H4.82603L4.0154 3.8251H1.11461L2.83191 0.962963ZM5.43235 12.037L1.09755 4.78806H3.98986L5.51994 12.037H5.43235ZM6.41006 12.037L4.88006 4.78806H8.11994L6.58986 12.037H6.41006ZM7.56757 12.037H7.47998L9.01019 4.78806H11.9024L7.56757 12.037Z" fill="#868686"/>
</svg>
