<svg width="22" height="22" viewBox="0 0 22 22" fill="none" xmlns="http://www.w3.org/2000/svg">
    <path d="M11 0C9.56154 0 8.46154 1.1 8.46154 2.53846V7.61538C8.46154 9.05385 9.56154 10.1538 11 10.1538H16.0769L19.4615 13.5385V10.1538C20.9 10.1538 22 9.05385 22 7.61538V2.53846C22 1.1 20.9 0 19.4615 0H11ZM14.5437 2.53846H15.9974L17.4257 7.61538H16.1565L15.8121 6.34615H14.5428L14.2264 7.61538H13.1154L14.5437 2.53846ZM15.2308 3.38462C15.1462 3.72308 15.0514 4.136 14.9659 4.38985L14.729 5.5H15.7334L15.4948 4.389C15.3264 4.136 15.2308 3.72308 15.2308 3.38462ZM2.53846 8.46154C1.1 8.46154 0 9.56154 0 11V16.0769C0 17.5154 1.1 18.6154 2.53846 18.6154V22L5.92308 18.6154H11C12.4385 18.6154 13.5385 17.5154 13.5385 16.0769V11H11C9.39231 11 8.118 9.9 7.69492 8.46154H2.53846ZM6.42569 10.9205C7.86415 10.9205 8.54108 12.1051 8.54108 13.4589C8.54108 14.6435 8.13408 15.3949 7.45715 15.7334C7.79562 15.9026 8.19669 15.9923 8.61977 16.0769L8.30331 16.9231C7.711 16.7538 7.09669 16.4898 6.50438 16.2352C6.41977 16.1505 6.27169 16.1565 6.18708 16.1565C5.17169 16.0718 4.23077 15.2308 4.23077 13.5385C4.23077 12.1 5.07185 10.9205 6.42569 10.9205ZM6.42569 11.8462C5.74877 11.8462 5.42046 12.6077 5.42046 13.5385C5.42046 14.5538 5.74877 15.2308 6.42569 15.2308C7.10262 15.2308 7.45631 14.4692 7.45631 13.5385C7.45631 12.6077 7.10262 11.8462 6.42569 11.8462Z" fill="black"/>
    </svg>
    