<svg width="100" height="88" viewBox="0 0 100 88" fill="none" xmlns="http://www.w3.org/2000/svg">
    <path d="M98.4153 0.425049H36.4447C35.5696 0.425049 34.86 1.13447 34.86 2.00954V8.34771H6.33817C5.4631 8.34771 4.75347 9.05713 4.75347 9.9322V17.8549H1.58449C0.709422 17.8549 0 18.5643 0 19.4393V82.8214C0 85.4425 2.13235 87.5751 4.75368 87.5751H95.0733C95.0946 87.5751 95.1157 87.5747 95.1367 87.5739C95.1731 87.5747 95.2097 87.5751 95.2463 87.5751C97.8674 87.5751 100 85.4427 100 82.8214V2.00954C99.9998 1.13447 99.2904 0.425049 98.4153 0.425049ZM4.75368 84.4061C3.87983 84.4061 3.16919 83.6953 3.16919 82.8216V21.024H90.3239L90.4924 82.8216C90.4924 83.3769 90.5882 83.9104 90.764 84.4061H4.75368ZM96.8306 82.8216C96.8306 83.6955 96.12 84.4061 95.2461 84.4061C94.3723 84.4061 93.6616 83.6953 93.6616 82.8173L93.4886 19.4353C93.4862 18.5618 92.7776 17.8551 91.9039 17.8551H7.92286V11.5167H36.4447C37.3198 11.5167 38.0292 10.8073 38.0292 9.93199V3.59423H96.8306V82.8216Z" fill="#F0F6FA"/>
    <path d="M42.7837 11.5166H91.9048C92.7798 11.5166 93.4895 10.8072 93.4895 9.9319C93.4895 9.05683 92.78 8.34741 91.9048 8.34741H42.7837C41.9086 8.34741 41.1992 9.05683 41.1992 9.9319C41.1992 10.8074 41.9086 11.5166 42.7837 11.5166Z" fill="#F0F6FA"/>
    <path d="M64.9672 43.2078H50.7062V32.1159C50.7062 31.2409 49.9968 30.5312 49.1215 30.5312H11.0923C10.2172 30.5312 9.50781 31.2407 9.50781 32.1159V51.1306C9.50781 52.0057 10.2172 52.7153 11.0923 52.7153H33.2762V63.8072C33.2762 64.6823 33.9856 65.3917 34.8607 65.3917H64.9672C65.8423 65.3917 66.5517 64.6823 66.5517 63.8072V44.7925C66.5517 43.9172 65.8423 43.2078 64.9672 43.2078ZM12.6768 49.546V33.7006H47.537V49.546H12.6768ZM63.3825 62.2225H36.4452V52.7153H49.1215C49.9966 52.7153 50.7062 52.0059 50.7062 51.1306V46.377H63.3825V62.2225Z" fill="#F0F6FA"/>
    <path d="M42.7833 36.8694H17.4304C16.5553 36.8694 15.8457 37.5788 15.8457 38.4541C15.8457 39.3294 16.5553 40.0388 17.4304 40.0388H42.7833C43.6583 40.0388 44.368 39.3294 44.368 38.4541C44.368 37.5788 43.6585 36.8694 42.7833 36.8694Z" fill="#F0F6FA"/>
    <path d="M42.7833 43.2078H17.4304C16.5553 43.2078 15.8457 43.9172 15.8457 44.7925C15.8457 45.6675 16.5551 46.3772 17.4304 46.3772H42.7833C43.6585 46.3769 44.368 45.6675 44.368 44.7925C44.368 43.9174 43.6585 43.2078 42.7833 43.2078Z" fill="#F0F6FA"/>
    <path d="M83.9807 25.7778H74.4734C73.5983 25.7778 72.8887 26.4873 72.8887 27.3623C72.8887 28.2376 73.5981 28.947 74.4734 28.947H83.9807C84.8558 28.947 85.5654 28.2376 85.5654 27.3623C85.5654 26.4873 84.8558 25.7778 83.9807 25.7778Z" fill="#F0F6FA"/>
    <path d="M83.9807 32.116H74.4734C73.5983 32.116 72.8887 32.8254 72.8887 33.7007C72.8887 34.5757 73.5981 35.2854 74.4734 35.2854H83.9807C84.8558 35.2854 85.5654 34.5759 85.5654 33.7007C85.5654 32.8254 84.8558 32.116 83.9807 32.116Z" fill="#F0F6FA"/>
    </svg>
    