<svg width="20" height="16" viewBox="0 0 20 16" fill="none" xmlns="http://www.w3.org/2000/svg">
<path fill-rule="evenodd" clip-rule="evenodd" d="M15.4948 7.99935C16.1805 7.99918 16.8525 7.8067 17.4344 7.44378C18.0162 7.08087 18.4846 6.56206 18.7864 5.94628C19.0882 5.3305 19.2112 4.64243 19.1416 3.96023C19.0719 3.27803 18.8123 2.62903 18.3923 2.08695C17.9723 1.54487 17.4087 1.13143 16.7655 0.893601C16.1224 0.655769 15.4254 0.603071 14.7537 0.741494C14.0821 0.879917 13.4627 1.20391 12.966 1.67668C12.4693 2.14945 12.1151 2.75204 11.9436 3.41602H1.74479C1.50168 3.41602 1.26852 3.51259 1.09661 3.6845C0.924704 3.85641 0.828127 4.08957 0.828127 4.33268C0.828127 4.5758 0.924704 4.80896 1.09661 4.98086C1.26852 5.15277 1.50168 5.24935 1.74479 5.24935H11.9436C12.3506 6.8306 13.7861 7.99935 15.4948 7.99935ZM13.6615 4.33268C13.6615 4.81891 13.8546 5.28523 14.1984 5.62905C14.5422 5.97286 15.0086 6.16602 15.4948 6.16602C15.981 6.16602 16.4473 5.97286 16.7912 5.62905C17.135 5.28523 17.3281 4.81891 17.3281 4.33268C17.3281 3.84645 17.135 3.38014 16.7912 3.03632C16.4473 2.6925 15.981 2.49935 15.4948 2.49935C15.0086 2.49935 14.5422 2.6925 14.1984 3.03632C13.8546 3.38014 13.6615 3.84645 13.6615 4.33268ZM0.828127 11.666C0.827244 10.7729 1.15234 9.91024 1.74239 9.23985C2.33244 8.56946 3.14687 8.13746 4.03283 8.02494C4.9188 7.91243 5.81536 8.12712 6.55426 8.62874C7.29315 9.13036 7.82357 9.8844 8.04596 10.7493H18.2448C18.4879 10.7493 18.7211 10.8459 18.893 11.0178C19.0649 11.1897 19.1615 11.4229 19.1615 11.666C19.1615 11.9091 19.0649 12.1423 18.893 12.3142C18.7211 12.4861 18.4879 12.5827 18.2448 12.5827H8.04596C7.82071 13.4448 7.28938 14.1955 6.55118 14.6945C5.81298 15.1935 4.91838 15.4068 4.03442 15.2946C3.15047 15.1823 2.33759 14.7522 1.74757 14.0844C1.15755 13.4167 0.830726 12.5571 0.828127 11.666ZM6.32813 11.666C6.32813 11.1798 6.13497 10.7135 5.79116 10.3697C5.44734 10.0258 4.98102 9.83268 4.49479 9.83268C4.00856 9.83268 3.54225 10.0258 3.19843 10.3697C2.85461 10.7135 2.66146 11.1798 2.66146 11.666C2.66146 12.1522 2.85461 12.6186 3.19843 12.9624C3.54225 13.3062 4.00856 13.4993 4.49479 13.4993C4.98102 13.4993 5.44734 13.3062 5.79116 12.9624C6.13497 12.6186 6.32813 12.1522 6.32813 11.666Z" fill="#0961F5"/>
</svg>
