<svg width="21" height="21" viewBox="0 0 21 21" fill="none" xmlns="http://www.w3.org/2000/svg">
    <g clip-path="url(#clip0_5_283)">
    <path d="M6.58344 21C5.18432 18.0876 5.92982 16.4194 7.00476 14.847C8.18207 13.125 8.48657 11.4214 8.48657 11.4214C8.48657 11.4214 9.41319 12.6249 9.04176 14.5084C10.6771 12.6879 10.9869 9.786 10.7388 8.67431C14.4361 11.2586 16.0164 16.8538 13.8875 21.0013C25.2157 14.5924 16.7054 5.00194 15.2236 3.92175C15.7171 5.00194 15.8116 6.83025 14.8128 7.71881C13.1236 1.31512 8.94857 0.00262451 8.94857 0.00262451C9.44207 3.30487 7.15832 6.91687 4.95594 9.61537C4.87851 8.29894 4.79582 7.38937 4.10413 6.12937C3.94926 8.52206 2.12094 10.4724 1.62482 12.8691C0.954131 16.1149 2.12751 18.4918 6.58213 21.0026L6.58344 21Z" fill="#FF0000"/>
    </g>
    <defs>
    <clipPath id="clip0_5_283">
    <rect width="21" height="21" fill="white"/>
    </clipPath>
    </defs>
    </svg>
    