<svg width="71" height="87" viewBox="0 0 71 87" fill="none" xmlns="http://www.w3.org/2000/svg">
<path d="M62.1285 26.898C62.1285 12.5629 50.1947 0.293091 35.5 0.293091C20.7689 0.293091 8.87148 12.1887 8.87148 26.898V40.0306H17.8809V27.4792C17.8809 17.7251 25.7641 9.81288 35.5 9.81288C45.2178 9.81288 53.1191 17.38 53.1191 26.898H62.1285ZM4.78457 43.4273C2.11445 47.5687 0.625 52.3458 0.625 57.3773C0.625 73.4162 16.0645 86.7122 35.5 86.7122C54.9355 86.7122 70.375 73.4162 70.375 57.3773C70.375 52.3458 68.8674 47.5687 66.2154 43.4273H4.78457ZM35.4455 47.7685C39.4961 47.7685 42.8746 51.038 42.8746 55.0886C42.8746 58.1402 40.9492 60.7558 38.3154 61.8638L44.2551 79.7009H26.7449L32.5756 61.8638C29.9418 60.7558 28.1254 58.122 28.1254 55.0886C28.1254 51.038 31.3949 47.7685 35.4455 47.7685Z" fill="#6949FF"/>
</svg>
