<svg width="17" height="17" viewBox="0 0 17 17" fill="none" xmlns="http://www.w3.org/2000/svg">
<path d="M9.39781 1.79606L8.77094 0.208946C8.66734 -0.0666399 8.34328 -0.0766009 8.22906 0.208946L7.60219 1.79606L6.21297 2.04508C5.96594 2.09156 5.85969 2.4734 6.04297 2.7025L7.05234 3.93102L6.81328 5.6609C6.77609 5.96969 7.03109 6.20875 7.25953 6.06598L8.50531 5.24254L9.74312 6.0527C9.97156 6.19547 10.2292 5.95641 10.1894 5.64762L9.95031 3.91773L10.9597 2.7025C11.1403 2.47672 11.0367 2.09488 10.7897 2.04508L9.40047 1.79606H9.39781ZM6.8 8.49977C6.32984 8.49977 5.95 8.97457 5.95 9.56227V15.9373C5.95 16.525 6.32984 16.9998 6.8 16.9998H10.2C10.6702 16.9998 11.05 16.525 11.05 15.9373V9.56227C11.05 8.97457 10.6702 8.49977 10.2 8.49977H6.8ZM0.85 10.6248C0.379844 10.6248 0 11.0996 0 11.6873V15.9373C0 16.525 0.379844 16.9998 0.85 16.9998H4.25C4.72016 16.9998 5.1 16.525 5.1 15.9373V11.6873C5.1 11.0996 4.72016 10.6248 4.25 10.6248H0.85ZM11.9 13.8123V15.9373C11.9 16.525 12.2798 16.9998 12.75 16.9998H16.15C16.6202 16.9998 17 16.525 17 15.9373V13.8123C17 13.2246 16.6202 12.7498 16.15 12.7498H12.75C12.2798 12.7498 11.9 13.2246 11.9 13.8123Z" fill="#6949FF"/>
</svg>
