<svg width="100" height="88" viewBox="0 0 100 88" fill="none" xmlns="http://www.w3.org/2000/svg">
    <path
        d="M57.458 48.3926H71.0459C74.4886 48.3926 77.2891 51.1931 77.2891 54.6357V65.0566C77.289 68.4992 74.4885 71.2998 71.0459 71.2998H57.458C54.0154 71.2998 51.2149 68.4993 51.2148 65.0566V54.6357C51.2148 51.193 54.0153 48.3926 57.458 48.3926ZM57.458 52.2969C56.1843 52.2969 55.1191 53.3343 55.1191 54.6357V65.0566C55.1192 66.3303 56.1567 67.3955 57.458 67.3955H71.0459C72.3196 67.3955 73.3847 66.3579 73.3848 65.0566V54.6357C73.3848 53.362 72.3473 52.2969 71.0459 52.2969H57.458Z"
        fill="#F0F6FA" stroke="#4C677B" />
    <path
        d="M73.3496 36.6814C70.8636 40.3709 66.6632 42.7945 61.8926 42.7947C57.1419 42.7947 52.9214 40.3705 50.4355 36.6814L50.0225 36.0681L49.6064 36.6794C47.0995 40.3707 42.8984 42.7947 38.1279 42.7947C33.3565 42.7945 29.1359 40.3702 26.6504 36.6814L26.2363 36.0662L25.8213 36.6814C23.3357 40.3702 19.1153 42.7947 14.3438 42.7947C14.1993 42.7947 14.0601 42.7951 13.9238 42.7927L13.5215 42.7761L12.9863 42.738V83.2722H22.6699V56.2908C22.6699 51.9294 26.2258 48.3923 30.5684 48.3923H37.6992C42.0606 48.3923 45.5977 51.9482 45.5977 56.2908V83.2517H86.9941V42.7742H86.4941C86.3405 42.7742 86.1932 42.7799 86.0566 42.7849C85.9175 42.7901 85.7884 42.7947 85.6562 42.7947C80.8847 42.7947 76.6643 40.3702 74.1787 36.6814L73.7637 36.0662L73.3496 36.6814ZM30.5889 52.2966C28.3697 52.2966 26.5947 54.0958 26.5947 56.2908V83.2517H41.7139V56.2908C41.7139 54.0716 39.9147 52.2967 37.7197 52.2966H30.5889ZM75.8867 30.7126C76.7046 35.3619 80.7718 38.8914 85.6562 38.8914C90.5419 38.8912 94.6063 35.3407 95.4453 30.7156L95.5518 30.1267H75.7832L75.8867 30.7126ZM4.5752 30.6931C5.39285 35.3395 9.45712 38.8902 14.3438 38.8699V38.8708L14.3447 38.8699L14.3467 38.8708L14.3457 38.8699C19.2279 38.8691 23.3155 35.343 24.1338 30.6931L24.2373 30.1062H4.47168L4.5752 30.6931ZM28.3389 30.6951C29.1779 35.3419 33.2433 38.8707 38.1279 38.8708C43.0122 38.8708 47.0794 35.3422 47.8975 30.6931L48.001 30.1062H28.2324L28.3389 30.6951ZM52.123 30.6931C52.9412 35.3422 57.0083 38.8708 61.8926 38.8708C66.7766 38.8706 70.843 35.342 71.6611 30.6931L71.7646 30.1062H52.0195L52.123 30.6931ZM18.3027 5.02222L6.69629 25.4753L6.27246 26.2224H93.7285L93.3037 25.4753L81.6768 5.02222L81.5332 4.76929H18.4463L18.3027 5.02222ZM9.08203 41.7429L8.78418 41.6121C3.91019 39.4612 0.5 34.6084 0.5 28.9509C0.500002 28.6202 0.593741 28.2956 0.761719 27.9919L15.6162 1.83765L15.6865 1.72046C16.0397 1.17356 16.6501 0.844571 17.3066 0.844482H82.6729C83.3235 0.844549 83.9384 1.18719 84.2949 1.72729L84.3633 1.83765L99.2383 27.9929L99.2422 27.9998L99.2461 28.0056C99.4178 28.2866 99.5 28.6036 99.5 28.9509C99.5 34.6285 96.0699 39.5011 91.1758 41.6521L90.79 41.822L90.8926 42.2312C90.8932 42.2336 90.8942 42.2422 90.8955 42.2644C90.897 42.2904 90.8975 42.3212 90.8975 42.3757V85.2039C90.8973 86.2761 90.0176 87.155 88.9453 87.155H11.0342C9.96185 87.155 9.08223 86.2761 9.08203 85.2039V41.7429Z"
        fill="#F0F6FA" stroke="#4C677B" />
</svg>
    