<svg width="22" height="23" viewBox="0 0 22 23" fill="none" xmlns="http://www.w3.org/2000/svg">
    <path d="M5.81248 1.08333C3.9479 2.28125 2.68748 4.39583 2.68748 6.8125C2.68748 9.22917 3.9479 11.3438 5.84373 12.5417C2.64581 12.5417 0.083313 9.97917 0.083313 6.8125C0.083313 5.29303 0.68692 3.83579 1.76135 2.76137C2.83577 1.68694 4.29301 1.08333 5.81248 1.08333ZM17.8646 2.64583L19.3541 4.13542L3.1354 20.3542L1.64581 18.8646L17.8646 2.64583ZM11.4271 5.17708L9.8854 4.20833L8.3854 5.25L8.8229 3.47917L7.37498 2.375L9.1979 2.25L9.80206 0.53125L10.5 2.22917L12.3021 2.26042L10.8958 3.4375L11.4271 5.17708ZM7.98956 8.9375L6.78123 8.17708L5.61456 8.98958L5.96873 7.61458L4.83331 6.75L6.24998 6.65625L6.71873 5.3125L7.24998 6.63542L8.66665 6.66667L7.5729 7.57292L7.98956 8.9375ZM17.7916 13.0625C17.7916 14.582 17.188 16.0392 16.1136 17.1136C15.0392 18.1881 13.582 18.7917 12.0625 18.7917C10.7916 18.7917 9.61456 18.375 8.66665 17.6771L16.6771 9.66667C17.375 10.6146 17.7916 11.7917 17.7916 13.0625ZM13.2083 19.9167L16.0937 18.7188L15.8437 22.2083L13.2083 19.9167ZM17.7187 17.1042L18.9166 14.2188L21.2083 16.8646L17.7187 17.1042ZM18.9166 11.9375L17.7291 9.04167L21.2083 9.29167L18.9166 11.9375ZM8.03123 18.7188L10.9166 19.9167L8.28123 22.1979L8.03123 18.7188Z" fill="black"/>
    </svg>
    