<svg width="19" height="18" viewBox="0 0 19 18" fill="none" xmlns="http://www.w3.org/2000/svg">
    <path
        d="M9.50065 1.5C7.42648 1.5 5.74023 3.0975 5.74023 5.0625C5.74023 6.99 7.33148 8.55 9.40565 8.6175C9.46898 8.61 9.53232 8.61 9.57982 8.6175C9.59565 8.6175 9.60357 8.6175 9.6194 8.6175C9.62732 8.6175 9.62732 8.6175 9.63523 8.6175C11.6619 8.55 13.2532 6.99 13.2611 5.0625C13.2611 3.0975 11.5748 1.5 9.50065 1.5Z"
        fill="#797979" />
    <path
        d="M13.5208 10.6127C11.312 9.21766 7.70995 9.21766 5.48536 10.6127C4.47995 11.2502 3.92578 12.1127 3.92578 13.0352C3.92578 13.9577 4.47995 14.8127 5.47745 15.4427C6.58578 16.1477 8.04245 16.5002 9.49911 16.5002C10.9558 16.5002 12.4124 16.1477 13.5208 15.4427C14.5183 14.8052 15.0724 13.9502 15.0724 13.0202C15.0645 12.0977 14.5183 11.2427 13.5208 10.6127Z"
        fill="#797979" />
</svg>